<?xml version="1.0" encoding="utf-8"?>
<!-- Generator: Adobe Illustrator 25.2.1, SVG Export Plug-In . SVG Version: 6.00 Build 0)  -->
<svg version="1.1" id="Layer_1" xmlns="http://www.w3.org/2000/svg" xmlns:xlink="http://www.w3.org/1999/xlink" x="0px" y="0px"
	 viewBox="0 0 492 492" style="enable-background:new 0 0 492 492;" xml:space="preserve">
<style type="text/css">
	.st0{fill:#FFFFFF;}
</style>
<g>
	<g>
		<path class="st0" d="M0,246c0,7.2,2.8,14,7.9,19.1l177.7,177.7c5.1,5.1,11.8,7.9,19,7.9c7.2,0,14-2.8,19-7.8l16.1-16.1
			c5.1-5.1,7.9-11.7,7.9-18.9c0-7.2-2.8-13.8-7.9-18.9L134.9,284.5h330.5c14.8,0,26.6-12.8,26.6-27.6V234
			c0-14.9-11.7-26.5-26.6-26.5H136.1l103.7-103.9c5.1-5.1,7.9-12.1,7.9-19.3c0-7.2-2.8-14-7.9-19l-16.1-16.1
			c-5.1-5.1-11.8-7.9-19-7.9c-7.2,0-14,2.8-19,7.9L7.9,226.9C2.8,232,0,238.8,0,246z"/>
	</g>
</g>
</svg>
